<?xml version="1.0" encoding="utf-8"?>
<!-- Generator: Adobe Illustrator 26.4.1, SVG Export Plug-In . SVG Version: 6.00 Build 0)  -->
<svg version="1.1" id="Layer_1" xmlns="http://www.w3.org/2000/svg" xmlns:xlink="http://www.w3.org/1999/xlink" x="0px" y="0px"
	 viewBox="0 0 345.3 345.3" style="enable-background:new 0 0 345.3 345.3;" xml:space="preserve">
<style type="text/css">
	.st0{fill:#FFFFFF;}
</style>
<g>
	<g>
		<path class="st0" d="M312.5,57.2c0,0-71,17.2-88.8,21.5C230.4,48.3,239,9.5,239,9.5l-45.6-4.2c0,0-24.7,34.3-43.2,60.1
			c-16.8-16.2-37.7-36.2-37.7-36.2L75.3,55.4c0,0,4.9,30.5,8.7,54.9C57.6,115.6,24,122.5,24,122.5L9,165.1c0,0,28.9,10.9,52.2,19.7
			c-20.7,27.1-49.5,64.4-49.5,64.4l21.4,41.4c0,0,39.5-25.4,69.5-44.6c2.2,18.3,10.9,93.7,10.9,93.7h60.1c0,0,14.5-81.4,18.2-101.8
			c17.8,7.7,92.5,40.2,92.5,40.2l39.2-58.4c0,0-59.7-51.8-73.9-64.3c35.7-21,85.8-50.5,85.8-50.5L312.5,57.2z M286.8,95.1
			l-94.9,57.5L268,226c-18.3-6.9-101.1-38.2-101.1-38.2L144.1,298c-2.9-18.7-16.2-105-16.2-105l-81.8,53.7
			c20-26.2,60.9-80.1,60.9-80.1L39,144.4c11.8-2,78.1-13.8,78.1-13.8l-14.1-70.7c6.9,7.2,46.3,49.5,46.3,49.5L203.5,33
			c-3.2,13-20.9,84.8-20.9,84.8L286.8,95.1z"/>
		<path class="st0" d="M122.1,155c-0.8,14.5,10.3,24.7,25.2,22.5c15.3-2.2,27.9-16.8,27.9-31.8c0-14.6-12.1-23.7-26.6-21
			C134.5,127.6,122.7,140.9,122.1,155"/>
	</g>
</g>
</svg>
